<svg width="702" height="108" viewBox="0 0 702 108" fill="none" xmlns="http://www.w3.org/2000/svg">
<path d="M451.833 0.00930658C455.898 -0.116813 459.904 1.04149 463.308 3.32713C461.417 10.7472 458.403 20.371 457.193 24.1767H446.471C445.261 20.371 442.25 10.7505 440.356 3.32935C443.76 1.04149 447.766 -0.116813 451.833 0.00930658Z" fill="#EB5757"/>
<path d="M0.253601 106V37.4H12.4056L35.8276 69.446L58.1716 37.4H69.5396V106H57.5836V56.412L35.9256 86.89H34.1616L12.3076 56.706V106H0.253601Z" fill="#292929"/>
<path d="M80.7476 106L109.756 37.204H120.34L149.348 106H136.51L129.356 88.458H100.054L92.8996 106H80.7476ZM114.754 52.786L104.66 77.188H124.75L114.754 52.786Z" fill="#292929"/>
<path d="M160.602 106V37.4H161.876C163.183 37.4 166.221 37.3673 170.99 37.302C175.76 37.1713 179.026 37.106 180.79 37.106C187.454 37.106 193.302 38.0207 198.332 39.85C203.363 41.614 207.381 44.0967 210.386 47.298C213.392 50.4993 215.613 54.0927 217.05 58.078C218.553 61.998 219.304 66.31 219.304 71.014C219.304 81.206 215.874 89.634 209.014 96.298C202.22 102.897 192.55 106.196 180.006 106.196C178.83 106.196 176.086 106.163 171.774 106.098C167.528 106.033 164.261 106 161.974 106H160.602ZM180.594 48.376C178.046 48.376 175.4 48.474 172.656 48.67V94.73C174.878 94.8607 177.458 94.926 180.398 94.926C188.565 94.926 194.968 92.77 199.606 88.458C204.245 84.146 206.564 78.3313 206.564 71.014C206.564 64.0233 204.245 58.5027 199.606 54.452C195.033 50.4013 188.696 48.376 180.594 48.376Z" fill="#292929"/>
<path d="M223.008 106L252.016 37.204H262.6L291.608 106H278.77L271.616 88.458H242.314L235.16 106H223.008ZM257.014 52.786L246.92 77.188H267.01L257.014 52.786Z" fill="#292929"/>
<path d="M314.917 106H302.863V37.4C304.039 37.4 307.142 37.3673 312.173 37.302C317.269 37.2367 320.666 37.204 322.365 37.204C327.2 37.204 331.381 37.8247 334.909 39.066C338.502 40.242 341.279 41.908 343.239 44.064C345.199 46.1547 346.636 48.474 347.551 51.022C348.466 53.5047 348.923 56.2487 348.923 59.254C348.923 65.4607 346.702 70.72 342.259 75.032C337.816 79.344 331.675 81.5 323.835 81.5C319.85 81.5 316.877 81.402 314.917 81.206V106ZM323.541 48.474C322.104 48.474 319.229 48.5393 314.917 48.67V69.74C318.053 70.0667 320.895 70.23 323.443 70.23C327.232 70.23 330.303 69.3153 332.655 67.486C335.007 65.5913 336.183 62.8147 336.183 59.156C336.183 52.0347 331.969 48.474 323.541 48.474Z" fill="#292929"/>
<path d="M375.903 106H363.849V37.4C365.025 37.4 368.128 37.3673 373.159 37.302C378.255 37.2367 381.652 37.204 383.351 37.204C388.186 37.204 392.367 37.8247 395.895 39.066C399.488 40.242 402.265 41.908 404.225 44.064C406.185 46.1547 407.622 48.474 408.537 51.022C409.452 53.5047 409.909 56.2487 409.909 59.254C409.909 65.4607 407.688 70.72 403.245 75.032C398.802 79.344 392.661 81.5 384.821 81.5C380.836 81.5 377.863 81.402 375.903 81.206V106ZM384.527 48.474C383.09 48.474 380.215 48.5393 375.903 48.67V69.74C379.039 70.0667 381.881 70.23 384.429 70.23C388.218 70.23 391.289 69.3153 393.641 67.486C395.993 65.5913 397.169 62.8147 397.169 59.156C397.169 52.0347 392.955 48.474 384.527 48.474Z" fill="#292929"/>
<path d="M452.013 80.324V69.054H479.845V97.474C476.905 100.414 472.985 102.766 468.085 104.53C463.25 106.229 458.612 107.078 454.169 107.078C443.062 107.078 434.308 103.877 427.905 97.474C421.568 91.0713 418.399 82.48 418.399 71.7C418.399 61.6387 421.535 53.2433 427.807 46.514C434.079 39.7193 442.344 36.322 452.601 36.322C461.421 36.322 468.771 38.6413 474.651 43.28L469.555 52.884C467.856 51.2507 465.602 49.9767 462.793 49.062C459.984 48.082 457.076 47.592 454.071 47.592C447.276 47.592 441.756 49.748 437.509 54.06C433.262 58.3067 431.139 64.1867 431.139 71.7C431.139 78.952 433.262 84.7993 437.509 89.242C441.756 93.6193 447.374 95.808 454.365 95.808C456.978 95.808 459.657 95.3507 462.401 94.436C465.21 93.456 467.268 92.3453 468.575 91.104V80.324H452.013Z" fill="#292929"/>
<path d="M486.858 106L515.866 37.204H526.45L555.458 106H542.62L535.466 88.458H506.164L499.01 106H486.858ZM520.864 52.786L510.77 77.188H530.86L520.864 52.786Z" fill="#292929"/>
<path d="M625.317 106H615.713L577.983 58.47V106H566.713V37.4H576.317L614.047 85.126V37.4H625.317V106Z" fill="#292929"/>
<path d="M673.826 80.324V69.054H701.658V97.474C698.718 100.414 694.798 102.766 689.898 104.53C685.063 106.229 680.425 107.078 675.982 107.078C664.875 107.078 656.121 103.877 649.718 97.474C643.381 91.0713 640.212 82.48 640.212 71.7C640.212 61.6387 643.348 53.2433 649.62 46.514C655.892 39.7193 664.157 36.322 674.414 36.322C683.234 36.322 690.584 38.6413 696.464 43.28L691.368 52.884C689.669 51.2507 687.415 49.9767 684.606 49.062C681.797 48.082 678.889 47.592 675.884 47.592C669.089 47.592 663.569 49.748 659.322 54.06C655.075 58.3067 652.952 64.1867 652.952 71.7C652.952 78.952 655.075 84.7993 659.322 89.242C663.569 93.6193 669.187 95.808 676.178 95.808C678.791 95.808 681.47 95.3507 684.214 94.436C687.023 93.456 689.081 92.3453 690.388 91.104V80.324H673.826Z" fill="#292929"/>
</svg>
