<?xml version="1.0" encoding="utf-8"?>
<!-- Generator: Adobe Illustrator 23.1.0, SVG Export Plug-In . SVG Version: 6.00 Build 0)  -->
<svg version="1.1" id="Layer_1" xmlns="http://www.w3.org/2000/svg" xmlns:xlink="http://www.w3.org/1999/xlink" x="0px" y="0px"
	 viewBox="0 0 691 475.1" style="enable-background:new 0 0 691 475.1;" xml:space="preserve">
<style type="text/css">
	.st0{fill:#0A2F4C;}
</style>
<g>
	<path class="st0" d="M543.3,70.7h-59.5V251h59.5c47.2,0,81.5-37.9,81.5-90.1C624.9,108.6,590.6,70.7,543.3,70.7z"/>
	<path class="st0" d="M331.7,70.7h-53.6v107.6h53.6c27.6,0,46.8-25.1,46.8-52.1C378.5,98.9,359.2,70.7,331.7,70.7z"/>
	<path class="st0" d="M0,0v318.6h690.7V0H0z M125.5,288.6c-45.7,0-81.6-23.2-93.8-60.5l-2.2-6.7l31.4-18.2l3.2,10.9
		c7.5,25.9,29.3,40.1,61.5,40.1c31.2,0,49.8-14,49.8-37.4c0-20.5-17.5-29.6-54.2-41.1l-1.1-0.3c-38.9-12.5-79.2-25.4-79.2-71.7
		c0-41,33.5-70.8,79.6-70.8c37.8,0,68.9,20.1,83.2,53.9l3.1,7.3L176.1,111l-3.8-9.1c-6.6-15.7-20.9-34.5-51.8-34.5
		c-26.6,0-43.8,14-43.8,35.7c0,20.1,15.5,27.3,50.9,38.8c39.1,12.8,83.5,27.3,83.5,74.6C211.1,259.7,176.7,288.6,125.5,288.6z
		 M331.7,212.4h-53.6V285h-36V36.6h89.5c47.2,0,82.8,43.8,82.8,89.6C414.4,171.8,378.9,212.4,331.7,212.4z M543.3,285h-93.9V36.6
		h93.9c66,0,115.7,53.4,115.7,124.2S609.3,285,543.3,285z"/>
</g>
<path class="st0" d="M81.7,431.7c0,16.8-11.8,26.9-31.5,26.9c-19.6,0-31.3-10-31.3-26.9v-79.1H0v79.1c0,26.1,20.2,43.6,50.2,43.6
	c30.1,0,50.4-17.5,50.4-43.6v-79.1H81.7V431.7z"/>
<polygon class="st0" points="210,352.6 185.3,352.6 134.8,399.2 134.8,352.6 117,352.6 117,473.5 134.8,473.5 134.8,424.1 
	187,473.5 211.4,473.5 146.3,411.5 "/>
<rect x="452.1" y="352.6" class="st0" width="17.7" height="120.9"/>
<polygon class="st0" points="567.6,439.7 500.9,352.6 485.4,352.6 485.4,473.5 504.4,473.5 504.4,386.4 570.9,473.5 586.6,473.5 
	586.6,352.6 567.6,352.6 "/>
<polygon class="st0" points="622.8,456.9 622.8,420.9 679.9,420.9 679.9,404.3 622.8,404.3 622.8,369.2 687.6,369.2 687.6,352.6 
	602.9,352.6 602.9,473.5 688.5,473.5 688.5,456.9 "/>
<path class="st0" d="M273.6,421.3h-32.7v-52.2h32.7c11.7,0,21.2,13.9,21.2,25.4C294.8,406,285.3,421.3,273.6,421.3 M314.4,465.7
	l-3.4-5.6l-22-25.3c14.1-5.9,23.5-25.3,23.5-40.3c0-20.7-17.5-42-38.9-42h-50.4v120.9h17.7v-35.6h29.8l28,35.6h12.6h7.9h0.2l-5-7.9
	L314.4,465.7z"/>
<path class="st0" d="M364.2,421.1l16.7-41.9l16.7,41.9H364.2z M388.6,352.6h-15.4c0,0-38.3,95.3-47.8,120.9h7h10.9l14.5-35.9
	l46.6-0.3l13.9,36.2h18.9L388.6,352.6z"/>
</svg>
